<svg xmlns="http://www.w3.org/2000/svg" version="1.1" xmlns:xlink="http://www.w3.org/1999/xlink" xmlns:svgjs="http://svgjs.dev/svgjs" width="1000" height="118" viewBox="0 0 1000 118"><g transform="matrix(1,0,0,1,-0.6060602595320006,-0.10518522576032296)"><svg viewBox="0 0 396 47" data-background-color="#ffffff" preserveAspectRatio="xMidYMid meet" height="118" width="1000" xmlns="http://www.w3.org/2000/svg" xmlns:xlink="http://www.w3.org/1999/xlink"><g id="tight-bounds" transform="matrix(1,0,0,1,0.24000013722528024,0.0838992854405376)"><svg viewBox="0 0 395.5199999999999 46.83219923371903" height="46.83219923371903" width="395.5199999999999"><g><svg viewBox="0 0 444.7883530740142 52.6659" height="46.83219923371903" width="395.5199999999999"><g><svg viewBox="0 0 444.7883530740142 52.6659" height="52.6659" width="444.7883530740142"><g id="textblocktransform"><svg viewBox="0 0 444.7883530740142 52.6659" height="52.6659" width="444.7883530740142" id="textblock"><g><svg viewBox="0 0 444.7883530740142 52.6659" height="52.6659" width="444.7883530740142"><g><svg><g></g><g></g></svg></g><g><svg><g><svg></svg></g><g></g></svg></g><g id="text-0"><svg viewBox="0 0 444.7883530740142 52.6659" height="52.6659" width="444.7883530740142"><g transform="matrix(1,0,0,1,0,0)"><svg width="346.6565" viewBox="5.050000190734863 -31.950000762939453 214.22999572753906 32.54999923706055" height="52.6659" data-palette-color="#222222"><path d="M8.95 0L5.05 0 5.05-31.4 16-31.4Q21.38-31.4 24.14-28.84 26.9-26.28 26.9-22.1L26.9-22.1Q26.9-17.98 24.14-15.41 21.38-12.85 16-12.85L16-12.85 8.95-12.85 8.95 0ZM27.7 0L22.65 0 13.65-14.25 17.9-14.25 27.7 0ZM8.95-28.05L8.95-15.6 15.7-15.6Q19.23-15.6 21.06-17.34 22.9-19.07 22.9-21.85L22.9-21.85Q22.9-24.7 21.14-26.38 19.38-28.05 16-28.05L16-28.05 8.95-28.05ZM54.97 0L35.62 0 35.62-31.4 54.97-31.4 54.97-28.05 39.52-28.05 39.52-17.5 54.07-17.5 54.07-14.15 39.52-14.15 39.52-3.4 54.97-3.4 54.97 0ZM63.72 0L63.72-31.4 68.37-31.4 84.32-5.55 83.97-5.55 83.97-31.4 87.87-31.4 87.87 0 83.52 0 67.02-26.7 67.62-26.7 67.62 0 63.72 0ZM104.34-28.05L93.22-28.05 93.22-31.4 117.67-31.4 117.67-28.05 106.49-28.05 107.37-28.95 107.37 0 103.47 0 103.47-28.95 104.34-28.05ZM134.09 0.6L134.09 0.6Q130.19 0.6 127.12-1.2 124.04-3 122.27-6.61 120.49-10.23 120.49-15.65L120.49-15.65Q120.49-21.15 122.27-24.76 124.04-28.38 127.12-30.16 130.19-31.95 134.09-31.95L134.09-31.95Q137.99-31.95 141.06-30.15 144.14-28.35 145.92-24.73 147.69-21.1 147.69-15.65L147.69-15.65Q147.69-10.18 145.92-6.56 144.14-2.95 141.06-1.18 137.99 0.6 134.09 0.6ZM134.09-3L134.09-3Q138.52-3 141.08-6.23 143.64-9.45 143.64-15.7L143.64-15.7Q143.64-21.83 141.08-25.14 138.52-28.45 134.09-28.45L134.09-28.45Q129.72-28.45 127.13-25.13 124.54-21.8 124.54-15.65L124.54-15.65Q124.54-9.43 127.13-6.21 129.72-3 134.09-3ZM159.11 0L155.16 0 155.16-31.4 165.26-31.4Q170.44-31.4 173.18-28.79 175.91-26.18 175.91-21.7L175.91-21.7Q175.91-17.28 173.18-14.69 170.44-12.1 165.26-12.1L165.26-12.1 159.11-12.1 159.11 0ZM159.11-28.05L159.11-15.5 165.26-15.5Q168.54-15.5 170.23-17.18 171.91-18.85 171.91-21.7L171.91-21.7Q171.91-24.6 170.23-26.33 168.54-28.05 165.26-28.05L165.26-28.05 159.11-28.05ZM186.84 0L182.94 0 182.94-31.4 186.84-31.4 186.84 0ZM197.28 0L193.18 0 203.98-31.4 208.73-31.4 219.28 0 215.18 0 212.53-8.05 200.03-8.05 197.28 0ZM206.28-26.65L201.03-11.1 211.53-11.1 206.28-26.65Z" opacity="1" transform="matrix(1,0,0,1,0,0)" fill="#222222" class="wordmark-text-0" data-fill-palette-color="primary"></path></svg></g><g><svg xmlns="http://www.w3.org/2000/svg" data-name="Layer 1" viewBox="2.430551767349243 20.791906356811523 95.1390609741211 58.46809387207031" x="359.0906" y="0" height="52.6659" width="85.69775307401419" class="icon-s-0" data-fill-palette-color="accent" id="s-0"><path d="M62.78 23l32 55.42 1.3-2.26h-64l1.3 2.26L65.37 23a1.5 1.5 0 0 0-2.59-1.51L30.79 77a1.51 1.51 0 0 0 1.3 2.26h64A1.51 1.51 0 0 0 97.37 77l-32-55.42A1.5 1.5 0 0 0 62.78 23Z" fill="#f500a2" data-fill-palette-color="accent"></path><path d="M34.63 23l32 55.42 1.3-2.26h-64l1.3 2.26L37.22 23a1.5 1.5 0 0 0-2.59-1.51L2.63 77a1.51 1.51 0 0 0 1.3 2.26h64A1.51 1.51 0 0 0 69.21 77l-32-55.42A1.5 1.5 0 0 0 34.63 23Z" fill="#f500a2" data-fill-palette-color="accent"></path></svg></g></svg></g></svg></g></svg></g></svg></g><g></g></svg></g><defs></defs></svg><rect width="395.5199999999999" height="46.83219923371903" fill="none" stroke="none" visibility="hidden"></rect></g></svg></g></svg>